<svg width="298" height="360" viewBox="0 0 298 360" fill="none" xmlns="http://www.w3.org/2000/svg">
<path d="M121.944 95.8985L53.3504 188.753L66.3069 115.687L121.944 95.8985Z" fill="white"/>
<path d="M48.7775 194.08L62.4962 116.448L37.3453 139.281L48.7775 194.08Z" fill="white"/>
<path d="M27.4373 201.691L34.2967 142.326L16.0051 169.725L27.4373 201.691Z" fill="white"/>
<path d="M0 211.586L13.7187 174.292L63.2583 293.023L0 211.586Z" fill="white"/>
<path d="M51.8261 259.535L30.4859 205.497L36.5831 152.22L45.7289 199.408L51.8261 259.535Z" fill="white"/>
<path d="M54.8747 261.057L50.3018 200.93L96.0307 136.237L54.8747 261.057Z" fill="white"/>
<path d="M65.5448 293.023L54.8747 263.34L144.046 293.023H65.5448Z" fill="white"/>
<path d="M57.9233 293.023L0 217.674L8.38363 287.696L57.9233 293.023Z" fill="white"/>
<path d="M90.6956 335.645L14.4808 293.023L59.4476 298.351L90.6956 335.645Z" fill="white"/>
<path d="M68.5933 328.795L12.1944 295.307L90.6956 356.194L68.5933 328.795Z" fill="white"/>
<path d="M96.7928 356.194L76.2148 332.6L102.128 345.539L146.332 352.389L96.7928 356.194Z" fill="white"/>
<path d="M100.604 339.45L77.7391 313.573L146.332 347.822L100.604 339.45Z" fill="white"/>
<path d="M160.813 353.15L106.701 359.239L182.916 360L160.813 353.15Z" fill="white"/>
<path d="M183.678 357.717L113.56 326.512L150.143 328.795L183.678 357.717Z" fill="white"/>
<path d="M189.013 355.433L159.289 329.556L234.742 341.734L189.013 355.433Z" fill="white"/>
<path d="M237.79 338.689L201.969 332.6L263.703 304.44L237.79 338.689Z" fill="white"/>
<path d="M270.563 296.829L222.547 318.901L284.281 238.224L270.563 296.829Z" fill="white"/>
<path d="M298 213.869L252.271 273.235V229.091L298 213.869Z" fill="white"/>
<path d="M150.143 291.501L57.9233 261.057L64.0205 243.552L150.143 291.501Z" fill="white"/>
<path d="M65.5448 239.746L86.1228 175.814L83.0742 249.641L65.5448 239.746Z" fill="white"/>
<path d="M99.8414 133.192L88.4092 172.008L130.327 91.3319L99.8414 133.192Z" fill="white"/>
<path d="M86.1228 251.163L88.4092 178.097L134.9 89.0486L86.1228 251.163Z" fill="white"/>
<path d="M88.4092 253.446L99.0793 217.674L126.517 274.757L88.4092 253.446Z" fill="white"/>
<path d="M153.192 289.979L130.327 276.279L180.629 280.085L153.192 289.979Z" fill="white"/>
<path d="M176.818 276.279L155.478 261.057L130.327 273.235L176.818 276.279Z" fill="white"/>
<path d="M128.041 269.429L102.89 217.674L155.478 255.729L128.041 269.429Z" fill="white"/>
<path d="M101.366 213.869L114.322 167.442L155.478 249.641L101.366 213.869Z" fill="white"/>
<path d="M157.003 243.552L116.609 164.397L159.289 217.674L157.003 243.552Z" fill="white"/>
<path d="M139.473 85.6089L118.133 159.07L160.813 213.869L139.473 85.6089Z" fill="white"/>
<path d="M205.018 170.486L163.862 209.302L144.046 89.0486L205.018 170.486Z" fill="white"/>
<path d="M211.115 121.015L173.008 115.687L219.499 156.786L211.115 121.015Z" fill="white"/>
<path d="M217.212 159.07L169.197 117.209L208.066 167.442L217.212 159.07Z" fill="white"/>
<path d="M166.91 112.643L145.57 85.6089L150.143 53.277L166.91 112.643Z" fill="white"/>
<path d="M155.478 0L150.143 46.4271L179.867 39.5772L155.478 0Z" fill="white"/>
<path d="M157.765 63.9323L151.668 49.4715L181.064 41.5146L157.765 63.9323Z" fill="white"/>
<path d="M201.207 41.5146L185.202 41.0994L192.236 62.4101L201.207 41.5146Z" fill="white"/>
<path d="M237.79 0L206.542 41.0994L232.455 54.0381L237.79 0Z" fill="white"/>
<path d="M232.455 74.5877V57.0825L203.494 43.3827L232.455 74.5877Z" fill="white"/>
<path d="M162.338 63.9323L182.916 44.1438L189.775 66.2156L162.338 63.9323Z" fill="white"/>
<path d="M194.348 66.2156L202.731 48.7104L220.261 66.2156H194.348Z" fill="white"/>
<path d="M198.921 69.26L194.348 83.7209L222.547 69.26H198.921Z" fill="white"/>
<path d="M189.013 82.9598L180.629 69.26L157.765 66.9767L189.013 82.9598Z" fill="white"/>
<path d="M191.299 82.1987L184.965 69.26H195.11L191.299 82.1987Z" fill="white"/>
<path d="M168.435 108.837L157.765 70.7822L168.435 76.871V108.837Z" fill="white"/>
<path d="M208.829 117.209L232.455 76.871L227.882 102.748L208.829 117.209Z" fill="white"/>
<path d="M229.407 76.1099L224.072 71.5433L214.926 101.226L229.407 76.1099Z" fill="white"/>
<path d="M220.261 74.5877L201.207 83.7209L211.115 100.465L220.261 74.5877Z" fill="white"/>
<path d="M171.483 104.271L172.246 78.3932L182.153 83.7209L171.483 104.271Z" fill="white"/>
<path d="M191.299 97.4207L185.202 85.6089H198.921L191.299 97.4207Z" fill="white"/>
<path d="M183.678 89.0486L177.581 101.226H189.775L183.678 89.0486Z" fill="white"/>
<path d="M200.445 89.0486L192.236 101.226H208.066L200.445 89.0486Z" fill="white"/>
<path d="M171.483 110.359L173.77 105.793L192.824 116.448L171.483 110.359Z" fill="white"/>
<path d="M205.018 117.209L195.11 116.448L212.639 104.271L205.018 117.209Z" fill="white"/>
<path d="M193.586 114.165L176.056 104.271H208.829L193.586 114.165Z" fill="white"/>
</svg>
